<svg version="1.1" id="Layer_1" xmlns="http://www.w3.org/2000/svg" xmlns:xlink="http://www.w3.org/1999/xlink" x="0px" y="0px"
	 width="100%" viewBox="0 0 99 135" enable-background="new 0 0 99 135" xml:space="preserve">
<path fill="#1A304F" opacity="1.000000" stroke="none" 
	d="
M1.000000,87.000000 
	C1.000000,58.379673 1.000000,29.759344 1.000000,1.069509 
	C33.900196,1.069509 66.800568,1.069509 100.000000,1.069509 
	C100.000000,29.353527 100.000000,57.708103 99.637787,86.668777 
	C94.665764,110.463074 80.669601,125.445129 58.823177,133.582199 
	C56.854988,134.315277 54.939800,135.190689 53.000000,136.000000 
	C51.611111,136.000000 50.222221,136.000000 48.219383,135.689758 
	C23.828077,128.072052 7.322687,113.715469 2.044380,88.439873 
	C1.933793,87.910309 1.358502,87.477791 1.000000,87.000000 
M4.849789,16.511787 
	C4.904170,36.162838 4.755308,55.817051 5.061477,75.464180 
	C5.499788,103.590874 20.676710,123.132858 47.865288,131.070816 
	C49.222195,131.466980 50.863640,131.768082 52.154118,131.382416 
	C77.900681,123.687820 95.433319,106.098557 95.922173,76.494881 
	C96.293343,54.017715 96.097229,31.531132 96.140640,9.048714 
	C96.143112,7.768786 96.028755,6.488634 95.968643,5.205787 
	C65.427216,5.205787 35.237274,5.205787 4.849791,5.205787 
	C4.849791,8.878748 4.849791,12.197009 4.849789,16.511787 
z"/>
<path fill="#FCFCFD" opacity="1.000000" stroke="none" 
	d="
M1.000000,87.468658 
	C1.358502,87.477791 1.933793,87.910309 2.044380,88.439873 
	C7.322687,113.715469 23.828077,128.072052 47.802715,135.689758 
	C32.405075,136.000000 16.810150,136.000000 1.000000,136.000000 
	C1.000000,119.979752 1.000000,103.958534 1.000000,87.468658 
z"/>
<path fill="#FCFDFD" opacity="1.000000" stroke="none" 
	d="
M53.468658,136.000000 
	C54.939800,135.190689 56.854988,134.315277 58.823177,133.582199 
	C80.669601,125.445129 94.665764,110.463074 99.637787,87.137436 
	C100.000000,103.258537 100.000000,119.517082 100.000000,136.000000 
	C84.646500,136.000000 69.291908,136.000000 53.468658,136.000000 
z"/>
<path fill="#F8F8F9" opacity="1.000000" stroke="none" 
	d="
M4.849790,16.013529 
	C4.849791,12.197009 4.849791,8.878748 4.849791,5.205787 
	C35.237274,5.205787 65.427216,5.205787 95.968643,5.205787 
	C96.028755,6.488634 96.143112,7.768786 96.140640,9.048714 
	C96.097229,31.531132 96.293343,54.017715 95.922173,76.494881 
	C95.433319,106.098557 77.900681,123.687820 52.154118,131.382416 
	C50.863640,131.768082 49.222195,131.466980 47.865288,131.070816 
	C20.676710,123.132858 5.499788,103.590874 5.061477,75.464180 
	C4.755308,55.817051 4.904170,36.162838 4.849790,16.013529 
M88.092705,87.933472 
	C84.300247,90.692764 80.507790,93.452057 76.715332,96.211357 
	C76.474548,95.983963 76.233772,95.756569 75.992989,95.529182 
	C78.430473,89.508057 80.867958,83.486923 83.305435,77.465797 
	C82.962929,77.191139 82.620430,76.916473 82.277924,76.641815 
	C77.210464,81.249031 72.143005,85.856247 66.156273,91.299248 
	C68.492012,81.012878 70.471123,72.297043 72.450233,63.581211 
	C72.078949,63.454578 71.707664,63.327946 71.336380,63.201313 
	C66.404800,71.382454 61.473221,79.563599 55.905716,88.799698 
	C54.122169,76.273415 52.499962,64.880226 50.877754,53.487038 
	C50.624237,53.492756 50.370716,53.498474 50.117199,53.504192 
	C48.496597,64.870239 46.875996,76.236282 45.086861,88.784317 
	C39.382908,79.333031 34.388454,71.057358 29.393999,62.781681 
	C29.085186,62.914173 28.776371,63.046665 28.467558,63.179153 
	C30.471182,72.262894 32.474804,81.346634 34.732059,91.580238 
	C28.686443,85.868378 23.772913,81.226097 18.859381,76.583824 
	C18.484612,76.886925 18.109840,77.190018 17.735069,77.493118 
	C20.273211,83.833641 22.811350,90.174164 25.694769,97.377228 
	C20.620926,93.624825 16.469194,90.554382 11.541106,86.909775 
	C15.388244,105.626038 31.595432,122.026917 49.075638,125.809425 
	C50.283493,126.070801 51.720757,125.828690 52.930317,125.442093 
	C71.546074,119.492104 83.979347,107.385185 89.861603,88.034409 
	C89.811081,87.774101 89.760567,87.513794 89.710052,87.253479 
	C89.390106,87.419327 89.070168,87.585175 88.092705,87.933472 
M48.778770,48.014931 
	C51.401257,48.335106 54.205387,48.172432 56.608257,49.076385 
	C61.548866,50.935032 66.086510,50.575005 71.148880,49.195854 
	C75.087112,48.122955 79.582634,48.859974 83.804337,49.160149 
	C85.999512,49.316231 88.138107,50.268032 90.644653,50.954102 
	C90.644653,48.358639 90.644653,46.415558 90.644653,44.710632 
	C82.583527,41.060497 74.694321,39.952473 66.413551,43.621422 
	C64.574768,44.436127 61.711552,43.865608 59.648968,43.074871 
	C53.408840,40.682564 47.415298,40.842644 41.178642,43.127045 
	C38.979824,43.932438 35.928680,44.336582 33.934914,43.439236 
	C25.759176,39.759541 18.100288,41.400646 10.407335,44.625492 
	C10.407335,46.568989 10.407335,48.512486 10.407335,50.977695 
	C12.656569,50.376930 14.518788,49.673100 16.441324,49.409973 
	C20.182526,48.897949 24.489300,47.295399 27.610952,48.536388 
	C34.722984,51.363724 41.207615,50.499279 48.778770,48.014931 
M45.688423,9.816451 
	C44.414104,9.912527 43.139786,10.008604 41.472473,10.134310 
	C41.472473,17.991489 41.461758,25.598135 41.481804,33.204700 
	C41.485661,34.668842 41.610161,36.132668 41.691578,37.863960 
	C45.868767,37.863960 49.828403,38.102772 53.745144,37.795258 
	C57.490398,37.501209 61.582806,36.287617 62.219753,32.189468 
	C62.699211,29.104605 61.122097,25.700104 60.325310,21.771589 
	C60.478966,19.898682 61.832241,16.379919 60.647526,14.322814 
	C59.373180,12.110072 55.842873,10.901449 53.058865,9.954482 
	C51.124115,9.296385 48.787270,9.820401 45.688423,9.816451 
M13.581777,9.829552 
	C12.443075,10.747274 10.382859,11.606414 10.320168,12.592541 
	C9.994006,17.723061 9.939107,22.899948 10.242261,28.033972 
	C10.619644,34.425091 14.825468,37.943230 22.008669,38.433632 
	C29.053926,38.914608 35.131943,35.441422 35.690723,29.622606 
	C36.315605,23.115511 35.834148,16.502174 35.834148,10.132437 
	C33.389935,10.132437 31.464636,10.132437 29.152128,10.132437 
	C29.152128,15.715279 29.135792,21.002966 29.157303,26.290497 
	C29.174486,30.514898 27.176401,33.009842 22.890678,32.926342 
	C18.818695,32.847004 17.053709,30.234371 17.020527,26.351576 
	C16.982183,21.864891 17.160582,17.368311 16.889790,12.897532 
	C16.825235,11.831766 15.350413,10.851420 13.581777,9.829552 
M75.039185,17.572964 
	C79.454445,12.851641 84.354286,14.947047 90.580391,17.439091 
	C89.702316,14.374521 89.764580,11.483137 88.487053,10.652580 
	C81.702965,6.242071 69.917580,10.590060 67.058800,18.186146 
	C64.890358,23.947893 66.400665,31.262230 70.495247,34.828770 
	C75.594879,39.270748 83.879349,39.647091 90.774147,35.564484 
	C90.431625,33.985844 90.067917,32.309582 89.668236,30.467480 
	C84.781929,32.879986 80.039246,34.722961 75.825478,30.668840 
	C72.142395,27.125292 72.305817,22.653137 75.039185,17.572964 
M77.440788,59.013477 
	C81.723701,59.946182 86.006615,60.878883 90.608055,61.880955 
	C90.608055,59.465477 90.608055,57.526577 90.608055,54.545357 
	C84.857239,53.984982 78.836609,52.217739 73.278946,53.165462 
	C66.812294,54.268196 60.735191,56.019188 54.365303,52.440388 
	C53.510021,57.421768 54.767265,60.619202 59.623478,61.049076 
	C62.840939,61.333889 66.143448,61.095188 69.367073,60.730286 
	C71.806526,60.454155 74.181458,59.608173 77.440788,59.013477 
M39.160992,54.956860 
	C37.340038,54.869083 35.271427,55.315052 33.739544,54.604267 
	C25.645382,50.848614 17.965939,52.686302 10.475286,55.736107 
	C10.475286,57.750988 10.475286,59.674187 10.475286,61.998173 
	C12.130613,61.647388 13.483008,61.580154 14.647180,61.077229 
	C20.612064,58.500351 26.464413,58.410046 32.534481,60.940975 
	C34.566078,61.788059 37.140965,61.924545 39.360989,61.616970 
	C46.196903,60.669888 46.943275,59.615215 46.587193,52.709698 
	C44.333073,53.442921 42.172485,54.145721 39.160992,54.956860 
M23.564167,70.190033 
	C24.634895,70.063240 25.705624,69.936447 26.805126,69.806252 
	C25.331717,62.830448 24.659660,62.384174 18.235315,64.221909 
	C15.566340,64.985390 12.953600,65.945465 10.404829,66.786591 
	C10.404829,68.902924 10.404829,70.845230 10.404829,73.173416 
	C14.734536,72.126007 18.731871,71.159004 23.564167,70.190033 
M83.853569,64.660133 
	C75.401726,62.388863 75.021385,62.606590 74.675285,69.559212 
	C79.956848,70.715981 85.161537,71.855911 90.566498,73.039703 
	C90.566498,70.613876 90.566498,68.558121 90.566498,66.606468 
	C88.388550,65.990402 86.505119,65.457642 83.853569,64.660133 
M36.108166,68.379517 
	C37.711197,70.035484 37.582447,73.639336 41.734886,72.310387 
	C46.190598,70.884369 44.918159,67.771561 45.153938,64.776207 
	C42.096279,65.272316 39.364281,65.660141 36.667038,66.216476 
	C36.287830,66.294693 36.078663,67.197289 36.108166,68.379517 
M56.285530,64.704529 
	C55.525494,68.026283 54.965801,71.271538 59.550869,72.277412 
	C64.651245,73.396339 63.710426,68.625038 65.562805,66.656281 
	C62.566551,65.985596 59.875347,65.383186 56.285530,64.704529 
z"/>
<path fill="#102747" opacity="1.000000" stroke="none" 
	d="
M89.527321,88.479294 
	C83.979347,107.385185 71.546074,119.492104 52.930317,125.442093 
	C51.720757,125.828690 50.283493,126.070801 49.075638,125.809425 
	C31.595432,122.026917 15.388244,105.626038 11.541106,86.909775 
	C16.469194,90.554382 20.620926,93.624825 25.694769,97.377228 
	C22.811350,90.174164 20.273211,83.833641 17.735069,77.493118 
	C18.109840,77.190018 18.484612,76.886925 18.859381,76.583824 
	C23.772913,81.226097 28.686443,85.868378 34.732059,91.580238 
	C32.474804,81.346634 30.471182,72.262894 28.467558,63.179153 
	C28.776371,63.046665 29.085186,62.914173 29.393999,62.781681 
	C34.388454,71.057358 39.382908,79.333031 45.086861,88.784317 
	C46.875996,76.236282 48.496597,64.870239 50.117199,53.504192 
	C50.370716,53.498474 50.624237,53.492756 50.877754,53.487038 
	C52.499962,64.880226 54.122169,76.273415 55.905716,88.799698 
	C61.473221,79.563599 66.404800,71.382454 71.336380,63.201313 
	C71.707664,63.327946 72.078949,63.454578 72.450233,63.581211 
	C70.471123,72.297043 68.492012,81.012878 66.156273,91.299248 
	C72.143005,85.856247 77.210464,81.249031 82.277924,76.641815 
	C82.620430,76.916473 82.962929,77.191139 83.305435,77.465797 
	C80.867958,83.486923 78.430473,89.508057 75.992989,95.529182 
	C76.233772,95.756569 76.474548,95.983963 76.715332,96.211357 
	C80.507790,93.452057 84.300247,90.692764 88.612411,88.027863 
	C89.263855,88.241264 89.395584,88.360283 89.527321,88.479294 
z"/>
<path fill="#182E4D" opacity="1.000000" stroke="none" 
	d="
M48.347099,48.036140 
	C41.207615,50.499279 34.722984,51.363724 27.610952,48.536388 
	C24.489300,47.295399 20.182526,48.897949 16.441324,49.409973 
	C14.518788,49.673100 12.656569,50.376930 10.407335,50.977695 
	C10.407335,48.512486 10.407335,46.568989 10.407266,44.628326 
	C18.100288,41.400646 25.759176,39.759541 33.934914,43.439236 
	C35.928680,44.336582 38.979824,43.932438 41.178642,43.127045 
	C47.415298,40.842644 53.408840,40.682564 59.648968,43.074871 
	C61.711552,43.865608 64.574768,44.436127 66.413551,43.621422 
	C74.694321,39.952473 82.583527,41.060497 90.644653,44.710632 
	C90.644653,46.415558 90.644653,48.358639 90.644653,50.954102 
	C88.138107,50.268032 85.999512,49.316231 83.804337,49.160149 
	C79.582634,48.859974 75.087112,48.122955 71.148880,49.195854 
	C66.086510,50.575005 61.548866,50.935032 56.608257,49.076385 
	C54.205387,48.172432 51.401257,48.335106 48.347099,48.036140 
z"/>
<path fill="#192F4E" opacity="1.000000" stroke="none" 
	d="
M46.159245,9.816376 
	C48.787270,9.820401 51.124115,9.296385 53.058865,9.954482 
	C55.842873,10.901449 59.373180,12.110072 60.647526,14.322814 
	C61.832241,16.379919 60.478966,19.898682 60.325310,21.771589 
	C61.122097,25.700104 62.699211,29.104605 62.219753,32.189468 
	C61.582806,36.287617 57.490398,37.501209 53.745144,37.795258 
	C49.828403,38.102772 45.868767,37.863960 41.691578,37.863960 
	C41.610161,36.132668 41.485661,34.668842 41.481804,33.204700 
	C41.461758,25.598135 41.472473,17.991489 41.472473,10.134310 
	C43.139786,10.008604 44.414104,9.912527 46.159245,9.816376 
M55.268951,27.090296 
	C53.026661,26.461889 50.784374,25.833485 48.211109,25.112324 
	C48.211109,28.205240 48.211109,30.452780 48.211109,32.682861 
	C54.863468,33.205833 55.795013,32.581852 55.268951,27.090296 
M54.184433,19.674658 
	C55.378384,15.220440 54.445499,14.472173 48.188465,14.996620 
	C48.188465,16.891230 48.188465,18.796434 48.188465,21.219633 
	C50.139275,20.832094 51.816174,20.498970 54.184433,19.674658 
z"/>
<path fill="#152B4B" opacity="1.000000" stroke="none" 
	d="
M14.053011,9.830668 
	C15.350413,10.851420 16.825235,11.831766 16.889790,12.897532 
	C17.160582,17.368311 16.982183,21.864891 17.020527,26.351576 
	C17.053709,30.234371 18.818695,32.847004 22.890678,32.926342 
	C27.176401,33.009842 29.174486,30.514898 29.157303,26.290497 
	C29.135792,21.002966 29.152128,15.715279 29.152128,10.132437 
	C31.464636,10.132437 33.389935,10.132437 35.834148,10.132437 
	C35.834148,16.502174 36.315605,23.115511 35.690723,29.622606 
	C35.131943,35.441422 29.053926,38.914608 22.008669,38.433632 
	C14.825468,37.943230 10.619644,34.425091 10.242261,28.033972 
	C9.939107,22.899948 9.994006,17.723061 10.320168,12.592541 
	C10.382859,11.606414 12.443075,10.747274 14.053011,9.830668 
z"/>
<path fill="#192F4E" opacity="1.000000" stroke="none" 
	d="
M74.812973,17.903772 
	C72.305817,22.653137 72.142395,27.125292 75.825478,30.668840 
	C80.039246,34.722961 84.781929,32.879986 89.668236,30.467480 
	C90.067917,32.309582 90.431625,33.985844 90.774147,35.564484 
	C83.879349,39.647091 75.594879,39.270748 70.495247,34.828770 
	C66.400665,31.262230 64.890358,23.947893 67.058800,18.186146 
	C69.917580,10.590060 81.702965,6.242071 88.487053,10.652580 
	C89.764580,11.483137 89.702316,14.374521 90.580391,17.439091 
	C84.354286,14.947047 79.454445,12.851641 74.812973,17.903772 
z"/>
<path fill="#192F4E" opacity="1.000000" stroke="none" 
	d="
M77.012947,59.014633 
	C74.181458,59.608173 71.806526,60.454155 69.367073,60.730286 
	C66.143448,61.095188 62.840939,61.333889 59.623478,61.049076 
	C54.767265,60.619202 53.510021,57.421768 54.365303,52.440388 
	C60.735191,56.019188 66.812294,54.268196 73.278946,53.165462 
	C78.836609,52.217739 84.857239,53.984982 90.608055,54.545357 
	C90.608055,57.526577 90.608055,59.465477 90.608055,61.880955 
	C86.006615,60.878883 81.723701,59.946182 77.012947,59.014633 
z"/>
<path fill="#192F4E" opacity="1.000000" stroke="none" 
	d="
M39.586441,54.902691 
	C42.172485,54.145721 44.333073,53.442921 46.587193,52.709698 
	C46.943275,59.615215 46.196903,60.669888 39.360989,61.616970 
	C37.140965,61.924545 34.566078,61.788059 32.534481,60.940975 
	C26.464413,58.410046 20.612064,58.500351 14.647180,61.077229 
	C13.483008,61.580154 12.130613,61.647388 10.475286,61.998173 
	C10.475286,59.674187 10.475286,57.750988 10.475286,55.736107 
	C17.965939,52.686302 25.645382,50.848614 33.739544,54.604267 
	C35.271427,55.315052 37.340038,54.869083 39.586441,54.902691 
z"/>
<path fill="#1C3150" opacity="1.000000" stroke="none" 
	d="
M23.146687,70.191017 
	C18.731871,71.159004 14.734536,72.126007 10.404829,73.173416 
	C10.404829,70.845230 10.404829,68.902924 10.404829,66.786591 
	C12.953600,65.945465 15.566340,64.985390 18.235315,64.221909 
	C24.659660,62.384174 25.331717,62.830448 26.805126,69.806252 
	C25.705624,69.936447 24.634895,70.063240 23.146687,70.191017 
z"/>
<path fill="#1C3150" opacity="1.000000" stroke="none" 
	d="
M84.237625,64.792511 
	C86.505119,65.457642 88.388550,65.990402 90.566498,66.606468 
	C90.566498,68.558121 90.566498,70.613876 90.566498,73.039703 
	C85.161537,71.855911 79.956848,70.715981 74.675285,69.559212 
	C75.021385,62.606590 75.401726,62.388863 84.237625,64.792511 
z"/>
<path fill="#1D3251" opacity="1.000000" stroke="none" 
	d="
M35.949478,68.048904 
	C36.078663,67.197289 36.287830,66.294693 36.667038,66.216476 
	C39.364281,65.660141 42.096279,65.272316 45.153938,64.776207 
	C44.918159,67.771561 46.190598,70.884369 41.734886,72.310387 
	C37.582447,73.639336 37.711197,70.035484 35.949478,68.048904 
z"/>
<path fill="#1D3351" opacity="1.000000" stroke="none" 
	d="
M56.734837,64.742661 
	C59.875347,65.383186 62.566551,65.985596 65.562805,66.656281 
	C63.710426,68.625038 64.651245,73.396339 59.550869,72.277412 
	C54.965801,71.271538 55.525494,68.026283 56.734837,64.742661 
z"/>
<path fill="#102747" opacity="1.000000" stroke="none" 
	d="
M88.941177,87.936630 
	C89.070168,87.585175 89.390106,87.419327 89.710052,87.253479 
	C89.760567,87.513794 89.811081,87.774101 89.694458,88.256851 
	C89.395584,88.360283 89.263855,88.241264 88.941177,87.936630 
z"/>
<path fill="#F3F4F5" opacity="1.000000" stroke="none" 
	d="
M55.536366,27.421944 
	C55.795013,32.581852 54.863468,33.205833 48.211109,32.682861 
	C48.211109,30.452780 48.211109,28.205240 48.211109,25.112324 
	C50.784374,25.833485 53.026661,26.461889 55.536366,27.421944 
z"/>
<path fill="#F1F3F4" opacity="1.000000" stroke="none" 
	d="
M53.838753,19.920252 
	C51.816174,20.498970 50.139275,20.832094 48.188465,21.219633 
	C48.188465,18.796434 48.188465,16.891230 48.188465,14.996620 
	C54.445499,14.472173 55.378384,15.220440 53.838753,19.920252 
z"/>
</svg>